Coordinates
version=1
nRows=19
nColumns=24
inDegrees=yes

Units are S.I. units (second, meters, Newtons, ...)
Angles are in degrees.

endheader
time	pelvis_tilt	pelvis_list	pelvis_rotation	pelvis_tx	pelvis_ty	pelvis_tz	hip_flexion_r	hip_adduction_r	hip_rotation_r	knee_angle_r	ankle_angle_r	subtalar_angle_r	mtp_angle_r	hip_flexion_l	hip_adduction_l	hip_rotation_l	knee_angle_l	ankle_angle_l	subtalar_angle_l	mtp_angle_l	lumbar_extension	lumbar_bending	lumbar_rotation
      1.05866667	     -1.24665436	     -4.04347593	     -2.46386105	      0.37926620	      1.00155668	      0.30599505	     16.72607979	      7.72842822	     -2.67995377	    -22.46597230	      0.40050805	    -16.12090058	     -0.56350977	     21.29065374	     -9.63641963	     -6.38931962	    -83.24235982	      3.39880306	     -2.75894176	      0.34725404	    -10.57168204	      6.47600413	      3.41771617
      1.06283333	     -0.89733478	     -3.96516417	     -2.70814268	      0.38420301	      1.00326919	      0.30674850	     15.80467018	      7.73232337	     -2.35626932	    -22.03522750	      0.47216181	    -16.14676199	     -0.55880072	     21.52580456	     -9.62245910	     -6.59657816	    -83.00929074	      3.53371442	     -2.57652983	      0.26676799	    -10.98606481	      6.29732211	      3.76120865
      1.06700000	     -0.64012796	     -3.88635326	     -2.93240192	      0.38912361	      1.00479441	      0.30739931	     14.99390099	      7.70955796	     -2.09292337	    -21.61589071	      0.48830416	    -16.06224093	     -0.55474546	     21.86698760	     -9.59554739	     -6.78081015	    -82.74377862	      3.65990680	     -2.44850718	      0.17866557	    -11.28925877	      6.12936681	      3.97633479
      1.07116667	     -0.43342370	     -3.82807232	     -3.12315147	      0.39399405	      1.00615572	      0.30800348	     14.24858358	      7.69455991	     -1.87543334	    -21.21851854	      0.59565516	    -15.96275152	     -0.55072061	     22.27633741	     -9.58531166	     -6.92043847	    -82.45786722	      3.81118373	     -2.27890550	      0.12236433	    -11.53504780	      5.99466282	      4.16081259
      1.07533333	     -0.17813633	     -3.75834921	     -3.33593637	      0.39887275	      1.00761981	      0.30864539	     13.43935954	      7.66504849	     -1.62464537	    -20.79234576	      0.63053925	    -15.85828440	     -0.54904355	     22.59817367	     -9.57529402	     -7.10832633	    -82.08897578	      3.92135228	     -2.16669495	      0.06294130	    -11.83886643	      5.83228778	      4.37265692
      1.07950000	      0.03096872	     -3.68377094	     -3.53075074	      0.40372884	      1.00897336	      0.30926109	     12.68838491	      7.61965394	     -1.41072875	    -20.37726035	      0.67546555	    -15.74933561	     -0.54860079	     22.96809051	     -9.55574142	     -7.27877954	    -81.67518237	      4.00691932	     -2.10190136	      0.00789444	    -12.08664998	      5.65470818	      4.55356422
      1.08366667	      0.26571961	     -3.61439965	     -3.72466008	      0.40855174	      1.01033415	      0.30985236	     11.90948123	      7.57010219	     -1.19225468	    -19.95863366	      0.73086760	    -15.63193529	     -0.54993941	     23.29463374	     -9.54314471	     -7.45952200	    -81.20915945	      4.09329112	     -2.03660163	     -0.04626658	    -12.36927229	      5.50730588	      4.74466117
      1.08783333	      0.45374821	     -3.54095141	     -3.91301726	      0.41337047	      1.01158906	      0.31044650	     11.18906351	      7.51038445	     -0.99777615	    -19.55191100	      0.77801472	    -15.49195512	     -0.55289619	     23.66195732	     -9.53006819	     -7.63904872	    -80.69497090	      4.15028435	     -2.01796087	     -0.09663704	    -12.59569717	      5.33377310	      4.90679030
      1.09200000	      0.64641220	     -3.47147962	     -4.09311944	      0.41818424	      1.01282498	      0.31098966	     10.46073157	      7.44392590	     -0.81221441	    -19.13695327	      0.83473757	    -15.34933700	     -0.55769331	     24.00791149	     -9.51437633	     -7.81378567	    -80.12603875	      4.20707725	     -2.00246730	     -0.14475526	    -12.82435376	      5.19224130	      5.06896048
      1.09616667	      0.81242309	     -3.39511969	     -4.27406912	      0.42296792	      1.01397683	      0.31153942	      9.77393252	      7.36541953	     -0.64162386	    -18.74247412	      0.90003360	    -15.18468785	     -0.56355223	     24.37030609	     -9.49616969	     -7.99646296	    -79.51004331	      4.24464378	     -2.01912696	     -0.18951140	    -13.02438665	      5.02706548	      5.21405978
      1.10033333	      0.98527429	     -3.34134057	     -4.44434579	      0.42773179	      1.01509613	      0.31208411	      9.07538257	      7.30556265	     -0.48170092	    -18.33529901	      0.95205756	    -15.02029401	     -0.57195639	     24.71380737	     -9.50427041	     -8.17088217	    -78.85221528	      4.28259645	     -2.03884021	     -0.23584051	    -13.23732873	      4.87983298	      5.36831374
      1.10450000	      1.11876722	     -3.26921959	     -4.61881617	      0.43249709	      1.01611777	      0.31260202	      8.43242894	      7.21935080	     -0.33778048	    -17.95242094	      1.03119351	    -14.82924446	     -0.57925016	     25.08100309	     -9.49224526	     -8.35513473	    -78.13978727	      4.30695237	     -2.09457888	     -0.27589299	    -13.40024598	      4.73119153	      5.49095651
      1.10866667	      1.13101057	     -3.25846521	     -4.74995055	      0.43722632	      1.01684077	      0.31302761	      7.92440546	      7.19890349	     -0.24182278	    -17.57127187	      1.04852583	    -14.65146945	     -0.58100260	     25.60420755	     -9.53477294	     -8.46017092	    -77.43715736	      4.33299808	     -2.13333863	     -0.29015118	    -13.42919915	      4.67883599	      5.54556068
      1.11283333	      1.34477207	     -3.15468408	     -4.94582696	      0.44198311	      1.01796718	      0.31358323	      7.20098084	      7.06384474	     -0.09642602	    -17.19814175	      1.18698908	    -14.40894626	     -0.58905621	     25.81883387	     -9.49733622	     -8.70677672	    -76.58370423	      4.33701960	     -2.24521120	     -0.33066800	    -13.68249106	      4.45657256	      5.74428501
      1.11700000	      1.36099762	     -3.15071541	     -5.08333200	      0.44669630	      1.01862817	      0.31402258	      6.69121656	      7.04548314	      0.00043677	    -16.81642190	      1.19450247	    -14.22579374	     -0.59221253	     26.29451470	     -9.55448113	     -8.82964157	    -75.77766028	      4.35895631	     -2.30238745	     -0.34887009	    -13.72393164	      4.40753277	      5.80176079
      1.12116667	      1.51272669	     -3.06052467	     -5.27168191	      0.45144165	      1.01956234	      0.31455471	      6.04538009	      6.92066278	      0.12186913	    -16.46127912	      1.34123771	    -13.98841231	     -0.59987400	     26.54639509	     -9.53468093	     -9.06994493	    -74.84034717	      4.35361239	     -2.44831976	     -0.38874165	    -13.90377975	      4.20801797	      5.97642907
      1.12533333	      1.58610126	     -3.02573413	     -5.43593043	      0.45616729	      1.02028661	      0.31505472	      5.47900736	      6.86057319	      0.23262813	    -16.09027978	      1.40269762	    -13.78572867	     -0.60908927	     26.88975549	     -9.57257216	     -9.25792389	    -73.89791803	      4.36615748	     -2.54004492	     -0.43176046	    -14.00568640	      4.09256328	      6.09700497
      1.12950000	      1.64824052	     -2.98894427	     -5.59887297	      0.46088563	      1.02094618	      0.31551013	      4.93586676	      6.79107000	      0.31788781	    -15.74026195	      1.48694713	    -13.56770264	     -0.61599996	     27.22543674	     -9.60335049	     -9.45049151	    -72.90657848	      4.36431849	     -2.68281768	     -0.47267277	    -14.08522555	      3.99065025	      6.21034414
      1.13366667	      1.58057881	     -3.03989247	     -5.69143010	      0.46558877	      1.02125478	      0.31587459	      4.52576502	      6.83085259	      0.36933820	    -15.38936042	      1.57473567	    -13.45153820	     -0.61479654	     27.73775251	     -9.70663585	     -9.51839053	    -71.95150972	      4.43045327	     -2.74491868	     -0.47906946	    -14.02420655	      4.01828312	      6.23194877
